<?xml version="1.0" encoding="UTF-8" standalone="no"?>
<!-- Created with Inkscape (http://www.inkscape.org/) -->

<svg
   xmlns:dc="http://purl.org/dc/elements/1.1/"
   xmlns:cc="http://creativecommons.org/ns#"
   xmlns:rdf="http://www.w3.org/1999/02/22-rdf-syntax-ns#"
   xmlns:svg="http://www.w3.org/2000/svg"
   xmlns="http://www.w3.org/2000/svg"
   xmlns:xlink="http://www.w3.org/1999/xlink"
   xmlns:sodipodi="http://sodipodi.sourceforge.net/DTD/sodipodi-0.dtd"
   xmlns:inkscape="http://www.inkscape.org/namespaces/inkscape"
   width="210mm"
   height="297mm"
   viewBox="0 0 210 297"
   version="1.1"
   id="svg4520"
   inkscape:version="0.92.1 r15371"
   sodipodi:docname="Logo_SVG.svg">
  <defs
     id="defs4514">
    <linearGradient
       id="linearGradient5088"
       inkscape:collect="always">
      <stop
         id="stop5092"
         offset="0"
         style="stop-color:#84402e;stop-opacity:0.78431374" />
      <stop
         id="stop5094"
         offset="1"
         style="stop-color:#302cb5;stop-opacity:0.87878788" />
    </linearGradient>
    <linearGradient
       inkscape:collect="always"
       xlink:href="#linearGradient5088"
       id="linearGradient5090"
       x1="52.916664"
       y1="243.32736"
       x2="150.43452"
       y2="202.8839"
       gradientUnits="userSpaceOnUse"
       gradientTransform="matrix(1.0097087,0,0,1.0097087,-1.467856,-2.3623814)" />
    <linearGradient
       inkscape:collect="always"
       xlink:href="#linearGradient5088"
       id="linearGradient5103"
       x1="52.784164"
       y1="204.39581"
       x2="151.32297"
       y2="204.39581"
       gradientUnits="userSpaceOnUse"
       gradientTransform="matrix(1.0097087,0,0,1.0097087,-1.467856,-2.3623814)" />
    <linearGradient
       inkscape:collect="always"
       xlink:href="#linearGradient5088"
       id="linearGradient5113"
       gradientUnits="userSpaceOnUse"
       gradientTransform="matrix(1.0097087,0,0,1.0097087,-1.467856,-2.3623814)"
       x1="52.784164"
       y1="204.39581"
       x2="151.32297"
       y2="204.39581" />
    <linearGradient
       inkscape:collect="always"
       xlink:href="#linearGradient5088"
       id="linearGradient5115"
       gradientUnits="userSpaceOnUse"
       gradientTransform="matrix(1.0097087,0,0,1.0097087,-1.467856,-2.3623814)"
       x1="52.916664"
       y1="243.32736"
       x2="150.43452"
       y2="202.8839" />
  </defs>
  <sodipodi:namedview
     id="base"
     pagecolor="#ffffff"
     bordercolor="#666666"
     borderopacity="1.0"
     inkscape:pageopacity="0.0"
     inkscape:pageshadow="2"
     inkscape:zoom="0.58"
     inkscape:cx="586.2069"
     inkscape:cy="545.7428"
     inkscape:document-units="mm"
     inkscape:current-layer="layer3"
     showgrid="false"
     showguides="true"
     inkscape:window-width="1440"
     inkscape:window-height="837"
     inkscape:window-x="-8"
     inkscape:window-y="-8"
     inkscape:window-maximized="1">
    <inkscape:grid
       type="xygrid"
       id="grid5105" />
  </sodipodi:namedview>
  <metadata
     id="metadata4517">
    <rdf:RDF>
      <cc:Work
         rdf:about="">
        <dc:format>image/svg+xml</dc:format>
        <dc:type
           rdf:resource="http://purl.org/dc/dcmitype/StillImage" />
        <dc:title></dc:title>
      </cc:Work>
    </rdf:RDF>
  </metadata>
  <g
     inkscape:label="Capa 1"
     inkscape:groupmode="layer"
     id="layer1" />
  <g
     inkscape:groupmode="layer"
     id="layer2"
     inkscape:label="Capa 2" />
  <g
     inkscape:groupmode="layer"
     id="layer3"
     inkscape:label="Capa 3">
    <g
       id="g5133">
      <g
         transform="matrix(2.1215176,0,0,2.1215176,-110.91559,-290.88607)"
         id="g5111"
         style="">
        <rect
           style="opacity:0.93999999;fill:url(#linearGradient5113);fill-opacity:1;stroke:url(#linearGradient5115);stroke-width:0.26757279;stroke-miterlimit:4;stroke-dasharray:none"
           id="rect4534"
           width="99.227913"
           height="78.619034"
           x="51.962559"
           y="164.70833" />
        <text
           xml:space="preserve"
           style="font-style:normal;font-weight:normal;font-size:25.39999962px;line-height:1.25;font-family:sans-serif;letter-spacing:0px;word-spacing:0px;fill:#000000;fill-opacity:1;stroke:none;stroke-width:0.26458332"
           x="66.523804"
           y="228.96428"
           id="text4539"><tspan
             sodipodi:role="line"
             id="tspan4537"
             x="66.523804"
             y="228.96428"
             style="font-size:70.55555725px;stroke-width:0.26458332">JP</tspan></text>
      </g>
      <path
         inkscape:connector-curvature="0"
         d="m 6.7268111,221.3736 c 0.986847,-0.78981 1.9463521,-1.60378 2.8893423,-2.43501 0.7864726,-0.71855 1.7733846,-1.20255 2.6789456,-1.78098 0.426883,-0.26617 0.820245,-0.59212 1.271953,-0.8263 2.296939,-1.19081 4.595597,-2.37931 6.91284,-3.5381 2.029543,-1.01493 -8.063638,4.14604 -6.049694,3.10646 2.284124,-1.17904 4.573493,-2.34991 6.860239,-3.52486 -2.035863,1.04792 -4.066052,2.10472 -6.107588,3.14374 -0.117513,0.0598 0.222113,-0.13802 0.334326,-0.20551 0.245019,-0.14736 0.480146,-0.3091 0.736179,-0.44056 2.2886,-1.17512 4.593067,-2.32531 6.882675,-3.49885 0.124653,-0.0639 0.239517,-0.14202 0.359276,-0.21303 0.857608,-0.32067 1.692666,-0.68918 2.552512,-1.0079 0.482762,-0.40187 1.112957,-0.49925 1.694592,-0.70908 0.256906,-0.0927 0.491589,-0.22976 0.746335,-0.32711 0.793001,-0.24392 1.462969,-0.69871 2.26446,-0.94447 0.89238,-0.30295 1.747607,-0.69431 2.657141,-0.95472 0.72312,-0.45017 1.590258,-0.52925 2.351335,-0.91276 0.917224,-0.29593 1.803991,-0.67136 2.737827,-0.9241 0.954225,-0.14298 1.866128,-0.41218 2.823912,-0.548 0.523398,-0.27497 1.144463,-0.29302 1.704192,-0.4541 0.254612,-0.0733 0.486421,-0.19999 0.735861,-0.28636 0.915877,-0.14865 1.754141,-0.49363 2.618291,-0.78717 0.908578,-0.32749 1.706081,-0.65331 2.688168,-0.79228 0.978536,-0.15282 1.936726,-0.37142 2.931094,-0.46817 1.022964,-0.0814 2.050847,-0.0842 3.076998,-0.0882 0.999504,-0.20603 2.013403,-0.3268 3.034934,-0.39571 0.970055,0.0542 1.866178,-0.14968 2.80148,-0.32355 0.950731,-0.0547 1.855115,-0.27456 2.785864,-0.43561 1.013582,-0.15798 2.043549,-0.18542 3.069685,-0.2042 0.899305,-0.0381 1.764499,-0.28837 2.666312,-0.37735 1.009463,0.0206 1.969946,-0.20294 2.959913,-0.32846 1.294415,-0.14241 2.561769,-0.42097 3.860357,-0.55756 1.226766,-0.12333 2.469886,-0.022 3.689197,-0.18747 1.240413,-0.3926 2.531956,-0.59561 3.834481,-0.72979 1.323028,-0.0963 2.650926,-0.0956 3.977254,-0.10156 1.093849,-0.0309 2.164169,-0.26654 3.258734,-0.36073 1.14366,-0.0893 2.292301,-0.086 3.439212,-0.0924 1.12999,-0.004 2.260014,-0.007 3.389998,-5.3e-4 1.229295,5.3e-4 2.458576,0.005 3.687876,0.004 1.12605,-0.002 2.25209,-0.004 3.37814,-0.005 1.14435,-0.005 2.28865,0.005 3.43298,0.007 1.21652,-5.3e-4 2.43305,-0.004 3.64957,-0.006 1.08311,-0.004 2.16621,2e-4 3.24932,0.002 1.626,0.009 3.25202,0.014 4.87806,0.0171 1.74594,0.003 3.49189,-0.003 5.23782,-0.0106 1.43831,-0.004 2.87658,-0.002 4.31487,0.003 1.91635,0.0219 3.83275,0.006 5.74914,0.003 1.84596,5.3e-4 3.69192,0.004 5.53788,0.005 1.99626,0.008 3.99246,0.005 5.98868,-0.006 1.46729,-0.011 2.93459,-0.005 4.40187,-0.004 1.76765,0.11868 3.5079,0.40738 5.26102,0.62668 1.87199,0.0448 3.66205,0.49576 5.48605,0.81395 1.8943,0.29479 3.80659,0.5014 5.66321,0.95688 1.99264,0.29752 3.91309,0.85001 5.87254,1.27283 1.47869,0.17241 2.84563,0.71851 4.28644,1.02116 1.86351,0.48024 3.72421,0.96642 5.56628,1.51116 1.77164,0.43771 3.51544,0.93836 5.24236,1.49881 1.03073,0.53515 2.15887,0.88341 3.22564,1.34328 0.14041,0.0541 0.28082,0.10835 0.42123,0.16251 0,0 -6.28398,3.74237 -6.28398,3.74237 v 0 c -0.14055,-0.0574 -0.2811,-0.11481 -0.42165,-0.17222 -1.07025,-0.41501 -2.10238,-0.88922 -3.16348,-1.32032 -1.69157,-0.57574 -3.41939,-1.04843 -5.15083,-1.51794 -1.85743,-0.51758 -3.73035,-0.98951 -5.61113,-1.43371 -1.41823,-0.34572 -2.79815,-0.81884 -4.25379,-1.04003 -1.94943,-0.45975 -3.88646,-0.95357 -5.8727,-1.27636 -1.86138,-0.39917 -3.76017,-0.6243 -5.64318,-0.92615 -1.80962,-0.33571 -3.60821,-0.687 -5.46003,-0.7854 -1.73333,-0.23135 -3.46875,-0.48777 -5.22407,-0.53235 -1.46302,0.001 -2.92607,0.007 -4.38908,-0.004 -1.98992,-0.0111 -3.97979,-0.0138 -5.96973,-0.006 -1.85147,0.002 -3.70295,0.005 -5.55444,0.005 -1.91963,-0.003 -3.83929,-0.0187 -5.75889,0.003 -1.44182,0.005 -2.88362,0.007 -4.32545,0.003 -1.73506,-0.008 -3.47015,-0.0137 -5.20524,-0.0106 -1.64348,0.003 -3.28696,0.008 -4.93041,0.0171 -1.08525,0.002 -2.1705,0.006 -3.25576,0.002 -1.21022,-0.002 -2.42044,-0.006 -3.63067,-0.006 -1.15175,0.002 -2.30348,0.0122 -3.455254,0.007 -1.121037,-0.001 -2.242072,-0.003 -3.363107,-0.005 -1.231527,-10e-4 -2.463046,0.002 -3.694575,9e-5 -1.12758,0.004 -2.255179,-0.004 -3.382745,0.005 -1.13525,0.0129 -2.272357,0.0352 -3.401329,0.15229 -1.094834,0.12442 -2.179623,0.35083 -3.290746,0.29446 -1.30991,0.009 -2.624217,0.0218 -3.925412,0.17161 -1.300488,0.1739 -2.557458,0.49493 -3.84593,0.7165 -1.227093,0.0712 -2.461904,0.0479 -3.682356,0.20335 -1.288499,0.168 -2.559092,0.42567 -3.850777,0.57614 -0.991905,0.1615 -1.985426,0.23927 -2.987789,0.32771 -0.898799,0.13431 -1.785135,0.35228 -2.705451,0.31397 -1.004224,0.0373 -2.009996,0.0993 -2.993415,0.29774 -0.927148,0.1806 -1.862731,0.28709 -2.794418,0.44451 -0.939612,0.1772 -1.885504,0.19524 -2.841477,0.25438 -1.027203,0.10154 -2.039964,0.30204 -3.072279,0.35061 -1.008959,0.0127 -2.020959,0.0294 -3.021867,0.15559 -0.975335,0.13953 -1.929679,0.36461 -2.902651,0.51575 -0.898475,0.2227 -1.723506,0.60664 -2.606977,0.8707 -0.866257,0.30697 -1.760944,0.52134 -2.640401,0.79191 -0.814287,0.26232 -1.669372,0.44014 -2.504483,0.63883 -0.928077,0.18191 -1.854541,0.38897 -2.763441,0.63378 -0.896994,0.31964 -1.816505,0.58791 -2.681653,0.9755 -0.805221,0.2825 -1.620362,0.53115 -2.398791,0.87139 -0.876487,0.33229 -1.767739,0.62771 -2.637668,0.97457 -0.748689,0.33104 -1.469099,0.71232 -2.260358,0.96038 -0.815435,0.33226 -1.647033,0.62425 -2.426957,1.02506 -0.841733,0.35033 -1.712841,0.6496 -2.514637,1.07158 -2.50523,1.09267 -0.306319,0.1441 5.669826,-2.97907 0.127135,-0.0664 -0.265154,0.1157 -0.389802,0.18583 -1.262613,0.7103 0.525135,-0.22025 -0.692735,0.42111 -2.265228,1.1929 -4.533798,2.3807 -6.800697,3.57107 20.320915,-10.52592 -14.96122837,7.79282 5.178414,-2.72677 1.190904,-0.62206 -2.545665,1.29627 -1.299401,0.76272 -0.853751,0.65261 -1.870563,1.07154 -2.714559,1.73673 -0.995407,0.76055 -1.8379,1.67443 -2.873035,2.39722 0,0 -6.9761659,2.5892 -6.9761659,2.5892 z"
         id="path5122"
         style="opacity:0.93999999;fill:#d40000;stroke:#302cb5;stroke-width:0.27967635;stroke-miterlimit:4;stroke-dasharray:none;stroke-opacity:0.87878789" />
    </g>
  </g>
</svg>
